<?xml version="1.0" encoding="UTF-8" standalone="no"?><!DOCTYPE svg PUBLIC "-//W3C//DTD SVG 1.1//EN" "http://www.w3.org/Graphics/SVG/1.1/DTD/svg11.dtd"><svg width="2165px" height="720px" version="1.1" xmlns="http://www.w3.org/2000/svg" xmlns:xlink="http://www.w3.org/1999/xlink" xml:space="preserve" xmlns:serif="http://www.serif.com/" style="fill-rule:evenodd;clip-rule:evenodd;stroke-linejoin:round;stroke-miterlimit:2;"><g transform="matrix(1,0,0,1,0,-114.660225)"><g id="Mesa-de-trabajo1" serif:id="Mesa de trabajo1" transform="matrix(0.929979,0,0,0.702388,0,114.660225)"><rect x="0" y="0" width="2327" height="1024" style="fill:none;"/><g transform="matrix(1.978799,0,0,2.619979,-2223.470471,-450.931983)"><g transform="matrix(2.189453,0,0,2.189453,38,24)"><path d="M575,79C576,79 577,80 577,80C577,88 577,88 577,89C577,90 582,91 583,91C587,92 622,100 634,107C637,110 635,136 634,145C634,145 633,151 631,148C628,143 627,144 565,118C540,108 532,132 534,134C535,136 574,156 574,157C584,161 590,139 618,145C632,149 625,155 628,159C629,161 630,163 619,180C605,202 585,215 579,219C572,222 546,196 543,192C539,187 536,184 541,182C546,179 546,180 552,181C560,182 559,172 563,167C567,163 548,149 546,153C544,157 548,160 548,162C549,169 540,169 538,170C533,171 534,168 529,166C520,163 526,155 520,152C515,151 515,152 510,151C509,151 509,151 509,150C512,151 523,153 520,144C518,136 519,121 519,119C519,112 516,109 525,106C528,105 528,105 529,105C532,104 532,103 535,102L536,102C536,101 537,101 538,101C543,98 556,95 558,95C561,95 561,95 564,94C566,93 566,93 568,93C569,92 569,93 571,92L572,92C572,92 576,91 577,90C578,82 576,80 576,79L575,79Z" style="fill:rgb(1,2,5);fill-opacity:0.01;"/></g><g transform="matrix(2.189453,0,0,2.189453,38,24)"><path d="M577,80C584,76 645,98 646,102C647,102 651,134 641,160C627,201 595,221 592,224C591,224 581,232 577,231C569,231 523,203 511,155C510,154 510,154 511,152C516,152 515,152 520,152C526,155 520,163 529,166C534,168 533,171 538,170C540,169 549,169 548,162C548,160 544,157 546,153C548,149 567,163 563,167C559,172 560,182 552,181C546,180 546,179 541,182C536,184 539,187 543,192C546,196 572,222 579,219C585,215 605,202 619,180C630,163 629,161 628,159C625,155 632,149 618,145C590,139 584,161 574,157C574,156 535,136 534,134C532,132 540,108 565,118C627,144 628,143 631,148C633,151 634,145 634,145C635,136 637,110 634,107C622,100 587,92 583,91C582,91 577,90 577,89C577,88 577,88 577,80Z" style="fill:white;fill-opacity:0.99;"/></g><g transform="matrix(2.189453,0,0,2.189453,38,24)"><path d="M575,78L575,79L576,79C575,89 576,89 575,89C575,90 575,90 572,92L571,92C570,92 569,92 568,93C564,93 564,93 561,93C559,94 559,94 558,95C556,95 543,98 538,101C537,101 537,101 536,102L535,102C532,102 530,104 527,104C526,105 526,105 525,106C516,109 519,112 519,119C519,121 518,136 520,144C523,153 512,151 509,150L508,150C509,147 508,147 507,145C507,141 505,103 508,100C508,99 509,99 510,98C514,97 514,97 517,95C518,95 518,95 521,94C525,93 525,93 528,91C529,91 529,91 530,90C534,90 533,89 537,88C540,87 540,88 542,86C544,86 544,86 546,86C547,85 547,85 549,85C555,83 555,83 561,81C562,81 562,81 563,80C564,80 564,81 570,79C572,79 573,79 575,78Z" style="fill:rgb(227,5,18);fill-opacity:0.99;"/></g><g transform="matrix(2.189453,0,0,2.189453,38,24)"><path d="M859,163C861,163 861,163 862,162C872,162 872,162 876,163C878,164 877,164 879,164C880,164 883,165 883,166C884,167 884,167 885,167C885,168 886,168 887,169C887,171 887,171 888,172C891,184 888,186 886,192C885,193 885,193 885,194C884,195 883,195 883,196C882,196 881,196 881,197C878,197 878,197 877,198C869,198 861,198 859,198C859,197 856,196 855,195C854,195 852,193 851,191C850,189 848,184 847,184L847,177C848,176 848,176 848,174L848,173C849,172 849,171 849,170L850,170C852,169 851,168 852,168C852,167 857,163 859,163Z" style="fill:rgb(226,5,17);fill-opacity:0.98;"/></g><g transform="matrix(2.189453,0,0,2.189453,38,24)"><path d="M912,148C905,138 904,138 901,137C891,137 893,142 893,146C893,151 885,150 884,147C883,146 884,117 884,116C884,114 885,113 907,113C931,114 920,133 918,134C913,138 916,139 920,145C925,151 914,149 912,148Z" style="fill:rgb(13,24,63);fill-opacity:0.99;"/></g><g transform="matrix(2.189453,0,0,2.189453,38,24)"><path d="M719,127C732,128 745,124 746,139C747,151 729,150 714,149C707,149 705,149 707,143C708,139 740,146 736,138C733,132 701,141 707,121C709,112 720,113 739,113C739,113 747,113 744,119C742,124 711,116 716,126C717,126 719,127 719,127Z" style="fill:rgb(12,23,61);fill-opacity:0.99;"/></g><g transform="matrix(2.189453,0,0,2.189453,38,24)"><path d="M779,127C779,127 786,126 784,133C783,137 763,132 761,136C760,141 762,142 766,142C781,142 787,140 787,146C787,150 785,149 761,149C755,149 752,151 752,144C751,116 751,115 753,114C755,112 781,113 784,113C784,113 789,113 787,118C786,124 763,118 761,122C758,129 772,127 779,127Z" style="fill:rgb(12,22,60);fill-opacity:0.99;"/></g><g transform="matrix(2.189453,0,0,2.189453,38,24)"><path d="M789,163C791,163 791,163 792,162C795,162 797,162 800,162C800,162 800,163 801,163C801,163 808,163 809,163C810,163 815,162 814,169C813,174 799,167 788,171C787,173 787,173 787,174L788,174C788,175 789,175 790,175C801,178 801,175 812,179C813,181 814,180 814,181C815,181 815,182 816,182C816,183 816,184 816,185C816,186 816,187 816,189C816,189 816,192 813,196C811,196 811,196 810,197C808,197 808,197 807,198L806,198C804,198 789,197 780,198C780,198 779,197 779,197C778,196 778,195 777,193C778,192 777,190 780,190C782,190 782,191 802,191C808,190 806,186 806,186C806,185 805,185 804,185C803,185 798,185 797,185C795,184 793,184 791,184C786,183 778,185 777,171C778,170 778,170 778,169C779,167 780,166 781,166C781,165 782,165 782,164L783,164C784,164 784,164 785,163C787,163 788,163 789,163Z" style="fill:rgb(226,7,18);fill-opacity:0.97;"/></g><g transform="matrix(2.189453,0,0,2.189453,38,24)"><path d="M877,136C876,140 879,151 854,149C838,148 838,144 838,122C838,115 838,111 846,113C852,115 842,141 853,142C865,143 868,141 868,135C868,121 866,114 871,113C872,113 876,113 877,114C878,116 877,129 877,136Z" style="fill:rgb(12,23,61);fill-opacity:0.99;"/></g><g transform="matrix(2.189453,0,0,2.189453,38,24)"><path d="M928,163C928,163 928,163 928,163C931,163 931,163 932,163C932,163 932,163 933,162C934,163 934,163 934,165C933,171 935,189 933,197C933,197 927,198 925,196C924,196 924,195 923,195C921,193 922,193 919,191C919,190 919,190 919,189C918,188 918,188 916,187C915,185 914,184 914,183C913,183 913,183 912,182C912,181 911,180 911,179C910,179 910,178 910,177C906,170 907,181 907,181C907,197 906,197 906,198L899,198C898,192 899,192 898,186C898,180 898,173 898,166C899,165 899,165 899,163C905,163 905,162 909,166C910,167 910,167 911,169C915,173 915,173 915,173C915,174 915,173 916,173C916,174 915,174 916,174C916,175 916,174 917,174C917,176 917,176 918,176C919,178 921,180 921,181C922,181 922,182 923,182C923,183 923,183 923,184C924,185 924,185 924,185C926,186 925,184 926,183C924,165 926,164 928,163Z" style="fill:rgb(226,4,16);fill-opacity:0.97;"/></g><g transform="matrix(2.189453,0,0,2.189453,38,24)"><path d="M824,149C815,150 789,155 792,128C794,112 805,113 822,113C828,113 832,114 832,121C831,125 825,119 807,121C800,122 799,141 808,142C827,143 832,137 832,142C832,149 829,148 824,149Z" style="fill:rgb(12,23,61);fill-opacity:0.99;"/></g><g transform="matrix(2.189453,0,0,2.189453,38,24)"><path d="M964,149C958,150 956,149 956,146C956,127 958,121 954,121C949,121 942,123 942,117C942,113 944,113 971,113C972,113 982,112 981,118C980,125 966,117 966,124C966,146 966,147 964,149Z" style="fill:rgb(13,23,62);fill-opacity:0.98;"/></g><g transform="matrix(2.189453,0,0,2.189453,38,24)"><path d="M739,163C741,163 741,163 743,163C744,164 744,164 745,166C744,167 744,167 743,168C743,169 739,178 738,178C738,179 738,179 738,181C737,181 737,182 737,183C736,183 736,184 736,185C735,185 735,185 735,186C734,187 734,188 734,189C733,189 733,190 732,190C730,195 730,195 730,196C729,196 729,197 728,197C726,198 726,198 721,197C720,197 721,196 720,196C720,195 720,195 719,195C719,194 719,194 718,193C717,189 714,184 714,183C713,182 712,180 712,179C711,179 711,174 707,171C706,168 706,168 706,168C706,167 705,167 705,166C705,165 705,164 705,163C709,163 709,163 713,163C713,164 713,164 714,165L715,165C715,167 715,167 716,168C717,170 716,171 718,172C718,175 720,178 720,179C721,180 721,180 722,180C722,181 722,182 723,183C723,184 723,184 723,185C723,185 724,188 726,187C726,186 725,186 726,186C728,181 728,181 728,180C730,177 730,177 731,173C732,173 732,173 732,172C734,170 733,170 734,167C735,166 734,164 739,163Z" style="fill:rgb(227,4,17);fill-opacity:0.98;"/></g><g transform="matrix(2.189453,0,0,2.189453,38,24)"><path d="M1015,126C1008,136 1009,136 1008,145C1008,146 1008,151 1001,149C995,148 1004,142 995,130C983,115 983,114 984,113C986,113 993,113 994,115C1001,123 1002,130 1006,124C1012,115 1011,113 1022,113C1025,113 1021,117 1015,126Z" style="fill:rgb(12,24,62);fill-opacity:0.98;"/></g><g transform="matrix(2.189453,0,0,2.189453,38,24)"><path d="M595,151C596,151 605,149 608,157C610,164 606,169 605,170C597,178 580,178 587,156C590,153 594,151 595,151Z"/></g><g transform="matrix(2.189453,0,0,2.189453,38,24)"><path d="M864,191C864,191 858,190 857,185C851,166 880,164 881,179C881,193 869,191 864,191Z"/></g><g transform="matrix(2.189453,0,0,2.189453,38,24)"><path d="M934,149C924,149 928,145 928,134C928,116 926,113 931,113C938,113 937,116 937,132C937,146 938,148 934,149Z" style="fill:rgb(13,24,63);fill-opacity:0.99;"/></g><g transform="matrix(2.189453,0,0,2.189453,38,24)"><path d="M759,163C760,163 760,163 761,163C763,163 764,163 766,163C766,167 766,167 766,170C766,171 767,171 767,171C767,195 767,197 765,198C759,198 757,198 757,193C757,165 757,164 759,163Z" style="fill:rgb(227,5,17);fill-opacity:0.95;"/></g><g transform="matrix(2.189453,0,0,2.189453,38,24)"><path d="M827,163C834,163 836,162 836,166C836,189 836,194 835,196C835,197 835,197 834,197C830,198 830,198 828,197C827,196 827,197 827,196C827,189 827,189 827,189C827,188 826,188 826,188C826,180 826,173 826,166C827,165 827,165 827,163Z" style="fill:rgb(225,5,17);fill-opacity:0.96;"/></g><g transform="matrix(2.189453,0,0,2.189453,38,24)"><path d="M591,170C582,161 594,154 594,154C611,147 607,180 591,170Z" style="fill:white;"/></g><g transform="matrix(2.189453,0,0,2.189453,38,24)"><path d="M587,156C580,178 597,178 605,170C605,171 606,171 606,171C606,172 605,172 605,172C605,172 603,175 605,175C608,175 608,170 611,174C610,174 608,178 602,180C591,183 585,177 585,176C584,176 581,173 580,168C577,160 582,159 584,157C586,155 587,156 587,156Z" style="fill:white;fill-opacity:0.99;"/></g><g transform="matrix(2.189453,0,0,2.189453,38,24)"><path d="M573,170C569,169 569,168 564,161C555,148 538,147 537,141C536,139 539,140 570,158C571,158 573,159 573,170Z" style="fill:white;fill-opacity:0.98;"/></g><g transform="matrix(2.189453,0,0,2.189453,38,24)"><path d="M613,171C607,168 617,162 611,152C610,150 605,146 610,147C628,151 618,169 613,171Z" style="fill:white;fill-opacity:0.99;"/></g><g transform="matrix(2.189453,0,0,2.189453,38,24)"><path d="M899,130C899,130 894,130 894,128C893,127 893,123 893,122C894,120 912,119 912,125C913,132 901,130 899,130Z"/></g><g transform="matrix(2.189453,0,0,2.189453,38,24)"><path d="M575,167C574,162 574,162 574,161C576,159 577,165 577,165C577,171 579,170 580,175C576,173 576,173 575,167Z" style="fill:white;fill-opacity:0.94;"/></g><g transform="matrix(2.189453,0,0,2.189453,38,24)"><path d="M911,179C908,179 907,179 907,179C907,179 908,181 908,183C908,197 908,198 907,198C906,198 906,198 906,198C906,197 907,197 907,181C907,181 906,170 910,177C910,178 910,179 911,179Z" style="fill:rgb(201,3,14);fill-opacity:0.21;"/></g><g transform="matrix(2.189453,0,0,2.189453,38,24)"><path d="M934,165C935,168 935,167 935,184C935,193 935,196 933,197C935,189 933,171 934,165Z" style="fill:rgb(185,3,13);fill-opacity:0.28;"/></g><g transform="matrix(2.189453,0,0,2.189453,38,24)"><path d="M780,198C789,197 804,198 806,198C801,199 786,200 780,198Z" style="fill:rgb(199,6,15);fill-opacity:0.22;"/></g><g transform="matrix(2.189453,0,0,2.189453,38,24)"><path d="M596,160C599,161 600,161 599,164C597,167 591,163 596,160Z"/></g><g transform="matrix(2.189453,0,0,2.189453,38,24)"><path d="M576,79C576,80 578,82 577,90C576,91 572,92 572,92C575,90 575,90 575,89C576,89 575,89 576,79Z" style="fill:rgb(214,4,17);fill-opacity:0.28;"/></g><g transform="matrix(2.189453,0,0,2.189453,38,24)"><path d="M558,175C558,175 552,186 554,176C556,171 557,171 558,171C558,172 558,174 558,175Z" style="fill:rgb(200,202,210);"/></g><g transform="matrix(2.189453,0,0,2.189453,38,24)"><path d="M858,198L859,198C861,198 869,198 877,198L878,198C873,199 862,199 858,198Z" style="fill:rgb(191,4,14);fill-opacity:0.24;"/></g><g transform="matrix(2.189453,0,0,2.189453,38,24)"><path d="M898,186C899,192 898,192 899,198C897,195 895,194 898,186Z" style="fill:rgb(214,3,15);fill-opacity:0.14;"/></g><g transform="matrix(2.189453,0,0,2.189453,38,24)"><path d="M707,171C711,174 711,179 712,179C708,176 708,171 707,171Z" style="fill:rgb(199,3,14);fill-opacity:0.18;"/></g><g transform="matrix(2.189453,0,0,2.189453,38,24)"><path d="M517,95C514,97 514,97 510,98L509,98C513,95 515,95 517,95Z" style="fill:rgb(197,4,15);fill-opacity:0.19;"/></g><g transform="matrix(2.189453,0,0,2.189453,38,24)"><path d="M911,169C916,173 916,172 917,174C916,174 916,175 916,174C915,174 916,174 916,173C915,173 915,174 915,173C915,173 915,173 911,169Z" style="fill:rgb(189,3,13);fill-opacity:0.17;"/></g><g transform="matrix(2.189453,0,0,2.189453,38,24)"><path d="M826,188C826,188 827,188 827,189C827,189 827,189 827,196C827,197 827,196 828,197C826,196 826,193 826,188Z" style="fill:rgb(182,4,13);fill-opacity:0.26;"/></g><g transform="matrix(2.189453,0,0,2.189453,38,24)"><path d="M922,182L923,182C923,182 923,183 923,183C923,183 926,183 926,183C925,184 926,186 924,185C924,185 924,185 923,184C923,183 923,183 923,182L922,182Z" style="fill:rgb(215,3,15);fill-opacity:0.16;"/></g><g transform="matrix(2.189453,0,0,2.189453,38,24)"><path d="M847,184C848,184 850,189 851,191C849,190 849,190 849,189C848,186 847,184 847,184Z" style="fill:rgb(190,4,14);fill-opacity:0.23;"/></g><g transform="matrix(2.189453,0,0,2.189453,38,24)"><path d="M510,151C515,152 515,151 520,152C515,152 516,152 511,152C511,152 510,152 510,151Z" style="fill:rgb(102,18,45);fill-opacity:0.5;"/></g><g transform="matrix(2.189453,0,0,2.189453,38,24)"><path d="M535,102C532,103 532,104 529,105L527,104C530,104 532,102 535,102Z" style="fill:rgb(198,4,15);fill-opacity:0.24;"/></g><g transform="matrix(2.189453,0,0,2.189453,38,24)"><path d="M800,162C804,162 804,162 809,163C808,163 801,163 801,163C800,163 800,162 800,162Z" style="fill:rgb(188,5,15);fill-opacity:0.27;"/></g><g transform="matrix(2.189453,0,0,2.189453,38,24)"><path d="M766,163C768,166 767,166 767,171C767,171 766,171 766,170C766,167 766,167 766,163Z" style="fill:rgb(188,4,14);fill-opacity:0.27;"/></g><g transform="matrix(2.189453,0,0,2.189453,38,24)"><path d="M716,167C716,168 718,168 718,172C716,171 717,170 716,168L716,167Z" style="fill:rgb(207,3,15);fill-opacity:0.13;"/></g><g transform="matrix(2.189453,0,0,2.189453,38,24)"><path d="M731,173C730,177 730,177 728,180C728,180 729,177 731,173Z" style="fill:rgb(189,3,14);fill-opacity:0.25;"/></g><g transform="matrix(2.189453,0,0,2.189453,38,24)"><path d="M919,191C922,193 921,193 923,195L923,194C921,193 920,193 919,191Z" style="fill:rgb(191,3,13);fill-opacity:0.2;"/></g><g transform="matrix(2.189453,0,0,2.189453,38,24)"><path d="M561,93C562,93 563,94 564,94C561,95 561,95 558,95C559,94 559,94 561,93Z" style="fill:rgb(195,4,15);fill-opacity:0.18;"/></g><g transform="matrix(2.189453,0,0,2.189453,38,24)"><path d="M718,193C719,194 719,194 719,195C720,195 720,195 720,196C721,196 720,197 721,197C720,197 719,197 718,193Z" style="fill:rgb(200,3,15);fill-opacity:0.18;"/></g><g transform="matrix(2.189453,0,0,2.189453,38,24)"><path d="M507,145C508,147 509,147 508,150C507,147 508,147 507,145Z" style="fill:rgb(208,4,16);fill-opacity:0.16;"/></g><g transform="matrix(2.189453,0,0,2.189453,38,24)"><path d="M855,195C856,196 859,197 859,198L858,198C856,197 856,197 855,195Z" style="fill:rgb(193,4,14);fill-opacity:0.19;"/></g><g transform="matrix(2.189453,0,0,2.189453,38,24)"><path d="M734,167C733,170 734,170 732,172C732,172 732,172 732,170C732,170 733,169 733,169C734,167 734,168 734,167Z" style="fill:rgb(178,3,13);fill-opacity:0.24;"/></g><g transform="matrix(2.189453,0,0,2.189453,38,24)"><path d="M568,93C566,93 566,93 564,94C563,94 562,93 561,93C564,93 564,93 568,93Z" style="fill:rgb(189,4,15);fill-opacity:0.24;"/></g><g transform="matrix(2.189453,0,0,2.189453,38,24)"><path d="M540,86L542,86C540,88 540,87 537,88C539,87 539,87 540,86Z" style="fill:rgb(194,4,15);fill-opacity:0.26;"/></g><g transform="matrix(2.189453,0,0,2.189453,38,24)"><path d="M549,85C547,85 547,85 546,86L543,85C546,84 546,85 549,85Z" style="fill:rgb(199,4,15);fill-opacity:0.15;"/></g><g transform="matrix(2.189453,0,0,2.189453,38,24)"><path d="M723,185C725,186 725,186 726,186C725,186 726,186 726,187C724,188 723,185 723,185Z" style="fill:rgb(223,3,16);fill-opacity:0.11;"/></g><g transform="matrix(2.189453,0,0,2.189453,38,24)"><path d="M911,179C911,180 912,181 912,182C913,183 913,183 914,183C912,181 911,182 911,179Z" style="fill:rgb(183,3,13);fill-opacity:0.22;"/></g><g transform="matrix(2.189453,0,0,2.189453,38,24)"><path d="M543,85L546,86C544,86 544,86 542,86L540,86C542,86 542,86 543,85Z" style="fill:rgb(192,4,15);fill-opacity:0.2;"/></g><g transform="matrix(2.189453,0,0,2.189453,38,24)"><path d="M791,184C793,184 795,184 797,185C795,184 793,184 791,184Z" style="fill:rgb(180,5,14);fill-opacity:0.31;"/></g><g transform="matrix(2.189453,0,0,2.189453,38,24)"><path d="M527,104L529,105C528,105 528,105 525,106C526,105 526,105 527,104Z" style="fill:rgb(204,4,16);fill-opacity:0.16;"/></g><g transform="matrix(2.189453,0,0,2.189453,38,24)"><path d="M928,163C930,162 930,162 933,162C932,163 932,163 932,163C931,163 931,163 928,163C928,163 928,163 928,163Z" style="fill:rgb(195,3,13);fill-opacity:0.26;"/></g><g transform="matrix(2.189453,0,0,2.189453,38,24)"><path d="M810,197L811,197C809,198 809,197 807,198C808,197 808,197 810,197Z" style="fill:rgb(187,5,14);fill-opacity:0.21;"/></g><g transform="matrix(2.189453,0,0,2.189453,38,24)"><path d="M881,197C879,198 879,197 878,198L877,198C878,197 878,197 881,197Z" style="fill:rgb(182,4,13);fill-opacity:0.23;"/></g><g transform="matrix(2.189453,0,0,2.189453,38,24)"><path d="M885,194L885,193C884,195 884,195 883,196C883,195 884,195 885,194Z" style="fill:rgb(191,4,14);fill-opacity:0.21;"/></g><g transform="matrix(2.189453,0,0,2.189453,38,24)"><path d="M777,193C778,195 778,196 779,197C777,196 778,196 777,193Z" style="fill:rgb(193,5,15);fill-opacity:0.24;"/></g><g transform="matrix(2.189453,0,0,2.189453,38,24)"><path d="M827,163C827,165 827,165 826,166C827,165 826,165 827,163Z" style="fill:rgb(209,4,15);fill-opacity:0.22;"/></g><g transform="matrix(2.189453,0,0,2.189453,38,24)"><path d="M884,167C886,168 886,168 887,169C886,168 885,168 885,167L884,167Z" style="fill:rgb(193,4,14);fill-opacity:0.22;"/></g><g transform="matrix(2.189453,0,0,2.189453,38,24)"><path d="M916,187C918,188 918,188 919,189C917,188 917,188 916,187Z" style="fill:rgb(187,3,13);fill-opacity:0.23;"/></g><g transform="matrix(2.189453,0,0,2.189453,38,24)"><path d="M575,78C573,79 572,79 570,79C572,78 572,79 575,78Z" style="fill:rgb(195,4,15);fill-opacity:0.26;"/></g><g transform="matrix(2.189453,0,0,2.189453,38,24)"><path d="M705,163C705,164 705,165 705,166C704,165 704,165 705,163Z" style="fill:rgb(212,3,15);fill-opacity:0.23;"/></g><g transform="matrix(2.189453,0,0,2.189453,38,24)"><path d="M859,163C861,162 861,163 862,162C861,163 861,163 859,163Z" style="fill:rgb(195,4,14);fill-opacity:0.23;"/></g><g transform="matrix(2.189453,0,0,2.189453,38,24)"><path d="M848,174C848,176 848,176 847,177C848,175 847,176 848,174Z" style="fill:rgb(193,4,14);fill-opacity:0.24;"/></g><g transform="matrix(2.189453,0,0,2.189453,38,24)"><path d="M899,163C899,165 899,165 898,166C899,165 898,165 899,163Z" style="fill:rgb(206,3,14);fill-opacity:0.26;"/></g><g transform="matrix(2.189453,0,0,2.189453,38,24)"><path d="M813,196C812,196 812,196 811,197L810,197C811,196 811,196 813,196Z" style="fill:rgb(203,6,16);fill-opacity:0.24;"/></g><g transform="matrix(2.189453,0,0,2.189453,38,24)"><path d="M739,163C741,162 741,163 743,163C741,163 741,163 739,163Z" style="fill:rgb(201,3,15);fill-opacity:0.29;"/></g><g transform="matrix(2.189453,0,0,2.189453,38,24)"><path d="M789,163C791,162 791,163 792,162C791,163 791,163 789,163Z" style="fill:rgb(188,5,15);fill-opacity:0.27;"/></g><g transform="matrix(2.189453,0,0,2.189453,38,24)"><path d="M715,165C715,166 715,166 716,167L716,168C715,167 715,167 715,165Z" style="fill:rgb(187,3,14);fill-opacity:0.2;"/></g><g transform="matrix(2.189453,0,0,2.189453,38,24)"><path d="M788,171C788,173 787,174 787,174C787,173 787,173 788,171Z" style="fill:rgb(181,5,14);fill-opacity:0.25;"/></g><g transform="matrix(2.189453,0,0,2.189453,38,24)"><path d="M745,166C744,167 745,167 743,168C744,167 744,167 745,166Z" style="fill:rgb(191,3,14);fill-opacity:0.18;"/></g><g transform="matrix(2.189453,0,0,2.189453,38,24)"><path d="M849,170C849,171 849,172 848,173C849,172 848,172 849,170Z" style="fill:rgb(183,4,13);fill-opacity:0.2;"/></g><g transform="matrix(2.189453,0,0,2.189453,38,24)"><path d="M852,168C851,168 852,169 850,170C851,169 851,169 852,168Z" style="fill:rgb(185,4,13);fill-opacity:0.19;"/></g><g transform="matrix(2.189453,0,0,2.189453,38,24)"><path d="M509,98L510,98C509,99 508,99 508,100C508,99 508,99 509,98Z" style="fill:rgb(184,4,14);fill-opacity:0.23;"/></g><g transform="matrix(2.189453,0,0,2.189453,38,24)"><path d="M816,185C816,187 816,187 816,189C816,187 816,186 816,185Z" style="fill:rgb(186,5,14);fill-opacity:0.37;"/></g><g transform="matrix(2.189453,0,0,2.189453,38,24)"><path d="M722,180C722,181 722,181 723,182L723,183C722,182 722,181 722,180Z" style="fill:rgb(176,3,13);fill-opacity:0.22;"/></g><g transform="matrix(2.189453,0,0,2.189453,38,24)"><path d="M571,92C569,93 569,92 568,93C569,92 570,92 571,92Z" style="fill:rgb(177,3,14);fill-opacity:0.23;"/></g><g transform="matrix(2.189453,0,0,2.189453,38,24)"><path d="M812,179C813,180 813,180 814,181C814,180 813,181 812,179Z" style="fill:rgb(182,5,14);fill-opacity:0.24;"/></g><g transform="matrix(2.189453,0,0,2.189453,38,24)"><path d="M735,186L735,187C734,187 734,188 734,189C734,188 734,187 735,186Z" style="fill:rgb(168,2,12);fill-opacity:0.24;"/></g><g transform="matrix(2.189453,0,0,2.189453,38,24)"><path d="M923,194L923,195C924,195 924,196 925,196C923,195 924,195 923,194Z" style="fill:rgb(170,3,12);fill-opacity:0.23;"/></g><g transform="matrix(2.189453,0,0,2.189453,38,24)"><path d="M759,163C760,163 760,163 761,163C760,163 760,163 759,163Z" style="fill:rgb(207,4,15);fill-opacity:0.24;"/></g><g transform="matrix(2.189453,0,0,2.189453,38,24)"><path d="M788,174C789,175 789,175 790,175C789,175 788,175 788,174Z" style="fill:rgb(193,6,15);fill-opacity:0.15;"/></g><g transform="matrix(2.189453,0,0,2.189453,38,24)"><path d="M536,102C537,101 537,101 538,101C537,101 536,101 536,102Z" style="fill:rgb(197,4,15);fill-opacity:0.21;"/></g><g transform="matrix(2.189453,0,0,2.189453,38,24)"><path d="M713,163C714,164 714,164 714,165C713,164 713,164 713,163Z" style="fill:rgb(206,3,15);fill-opacity:0.17;"/></g><g transform="matrix(2.189453,0,0,2.189453,38,24)"><path d="M723,182C723,183 723,183 723,185C723,184 723,184 723,183L723,182Z" style="fill:rgb(192,3,14);fill-opacity:0.19;"/></g><g transform="matrix(2.189453,0,0,2.189453,38,24)"><path d="M783,164C784,164 784,164 785,163C784,164 784,164 783,164Z" style="fill:rgb(196,6,15);fill-opacity:0.23;"/></g><g transform="matrix(2.189453,0,0,2.189453,38,24)"><path d="M883,166C884,166 884,166 884,167L885,167C884,167 884,167 883,166Z" style="fill:rgb(204,4,15);fill-opacity:0.17;"/></g><g transform="matrix(2.189453,0,0,2.189453,38,24)"><path d="M886,192C886,193 886,193 885,193L885,194C885,193 885,193 886,192Z" style="fill:rgb(204,4,15);fill-opacity:0.18;"/></g><g transform="matrix(2.189453,0,0,2.189453,38,24)"><path d="M738,181C737,182 737,182 737,183C737,182 737,181 738,181Z" style="fill:rgb(185,3,13);fill-opacity:0.22;"/></g><g transform="matrix(2.189453,0,0,2.189453,38,24)"><path d="M738,178C738,179 738,180 738,181C738,179 738,179 738,178Z" style="fill:rgb(189,3,14);fill-opacity:0.23;"/></g><g transform="matrix(2.189453,0,0,2.189453,38,24)"><path d="M528,91C529,91 530,91 530,90C529,91 529,91 528,91Z" style="fill:rgb(189,4,15);fill-opacity:0.25;"/></g><g transform="matrix(2.189453,0,0,2.189453,38,24)"><path d="M737,183C736,184 736,184 736,185C736,184 736,183 737,183Z" style="fill:rgb(181,3,13);fill-opacity:0.22;"/></g><g transform="matrix(2.189453,0,0,2.189453,38,24)"><path d="M736,185C735,185 735,186 735,187L735,186C735,185 735,185 736,185Z" style="fill:rgb(180,3,13);fill-opacity:0.22;"/></g><g transform="matrix(2.189453,0,0,2.189453,38,24)"><path d="M921,181C922,181 922,181 922,182L923,182C922,182 922,181 921,181Z" style="fill:rgb(192,3,13);fill-opacity:0.23;"/></g><g transform="matrix(2.189453,0,0,2.189453,38,24)"><path d="M778,169C778,170 778,170 777,171C778,170 778,170 778,169Z" style="fill:rgb(193,5,15);fill-opacity:0.29;"/></g><g transform="matrix(2.189453,0,0,2.189453,38,24)"><path d="M923,182C924,182 925,182 926,183C926,183 923,183 923,183C923,183 923,182 923,182Z" style="fill:rgb(112,1,7);fill-opacity:0.05;"/></g><g transform="matrix(2.189453,0,0,2.189453,38,24)"><path d="M734,189C733,190 733,190 732,190C733,190 733,189 734,189Z" style="fill:rgb(186,3,13);fill-opacity:0.24;"/></g><g transform="matrix(2.189453,0,0,2.189453,38,24)"><path d="M917,174C917,175 917,176 918,176C917,176 917,176 917,174Z" style="fill:rgb(180,3,12);fill-opacity:0.24;"/></g><g transform="matrix(2.189453,0,0,2.189453,38,24)"><path d="M814,181C815,181 815,182 816,182C815,182 815,181 814,181Z" style="fill:rgb(189,5,15);fill-opacity:0.27;"/></g><g transform="matrix(2.189453,0,0,2.189453,38,24)"><path d="M561,81C562,81 563,81 563,80C562,81 562,81 561,81Z" style="fill:rgb(186,4,14);fill-opacity:0.28;"/></g><g transform="matrix(2.189453,0,0,2.189453,38,24)"><path d="M782,164C782,165 781,165 781,166C781,165 782,165 782,164Z" style="fill:rgb(184,5,14);fill-opacity:0.28;"/></g><g transform="matrix(2.189453,0,0,2.189453,38,24)"><path d="M730,196C729,196 729,197 728,197C729,197 729,196 730,196Z" style="fill:rgb(194,3,14);fill-opacity:0.27;"/></g><g transform="matrix(2.189453,0,0,2.189453,38,24)"><path d="M720,179C721,179 721,179 722,180C721,180 721,180 720,179Z" style="fill:rgb(180,3,13);fill-opacity:0.27;"/></g><g transform="matrix(2.189453,0,0,2.189453,38,24)"><path d="M804,185C805,185 806,185 806,186C806,185 805,185 804,185Z" style="fill:rgb(179,5,14);fill-opacity:0.23;"/></g></g></g></g></svg>